<svg width="95" height="95" viewBox="0 0 95 95" fill="none" xmlns="http://www.w3.org/2000/svg">
<g filter="url(#filter0_i_1999_20131)">
<circle cx="47.9241" cy="47.4373" r="37" fill="#76B926"/>
</g>
<circle cx="47.9241" cy="47.4373" r="42" stroke="white" stroke-width="10"/>
<g clip-path="url(#clip0_1999_20131)">
<path d="M43.7318 60.5103C41.8442 60.4974 39.9783 60.1071 38.2438 59.3622C35.4521 58.227 33.1261 56.1816 31.6433 53.5579C30.2464 50.9739 30.0438 48.2264 31.0675 45.8094L32.7025 46.5203C31.8957 48.4112 32.0734 50.6114 33.2072 52.7084C34.4936 54.978 36.5089 56.7465 38.9262 57.7272C41.3109 58.7871 43.9834 59.0113 46.5113 58.3635C48.8039 57.7237 50.5171 56.3232 51.3239 54.4181L52.9625 55.129C51.9353 57.5424 49.8133 59.3018 46.9876 60.1051C45.9257 60.3872 44.8304 60.5236 43.7318 60.5103Z" fill="white"/>
<path d="M50.4744 56.2877C47.1013 56.2877 41.5032 53.9631 40.675 53.6148C39.5554 53.1385 29.7666 48.8768 31.0213 45.9196C32.276 42.9623 42.1536 47.057 43.259 47.5332C45.1497 48.3254 46.9823 49.2495 48.7434 50.2986L47.8406 51.8198C46.1528 50.8135 44.3961 49.9275 42.5837 49.1683C37.2059 46.8899 33.712 46.4278 32.7594 46.6589C33.2677 47.5155 36.0152 49.7014 41.3716 51.9762C46.7281 54.251 50.2007 54.7167 51.1675 54.4892C50.9685 54.1764 50.3998 53.5366 49.0349 52.6089L50.0408 51.1445C52.4649 52.8115 53.3712 54.1089 52.8843 55.2249C52.5857 55.9962 51.6687 56.2877 50.4744 56.2877Z" fill="white"/>
<path d="M63.9206 41.7716L62.7477 43.1045C63.0613 43.3601 63.3366 43.6593 63.5652 43.9931C62.5949 44.2206 59.1045 43.7478 53.7693 41.4801C48.4342 39.2124 45.6547 37.0087 45.1571 36.1628C46.1132 35.9282 49.6178 36.3938 54.9494 38.6722C57.2686 39.6269 59.4868 40.8104 61.5712 42.2052L62.6055 40.7621C60.42 39.2927 58.0934 38.0449 55.6603 37.0371C54.5548 36.5644 44.9367 32.5871 43.4794 35.3168C43.4794 35.3453 43.4581 35.3737 43.4439 35.4057V35.427C43.4418 35.4424 43.4418 35.4579 43.4439 35.4732C41.4427 40.3463 44.6594 46.3247 50.6308 48.8626C52.3697 49.6083 54.2409 49.9963 56.133 50.0035C57.2317 50.006 58.3256 49.8601 59.3853 49.5699C62.1541 48.7986 64.2441 47.0818 65.2926 44.7573C65.2984 44.7435 65.3055 44.7304 65.314 44.7182V44.6862L65.3495 44.608C65.7583 43.3924 64.3863 42.1839 63.9206 41.7716ZM56.7266 47.2453C55.9637 47.4884 55.156 47.557 54.363 47.4463C53.5701 47.3356 52.8121 47.0483 52.145 46.6055L53.126 45.1234C53.5711 45.4202 54.0775 45.6127 54.6074 45.6866C55.1373 45.7604 55.677 45.7137 56.1863 45.5499L56.3356 45.5037L56.8759 47.1956L56.7266 47.2453Z" fill="white"/>
<path d="M42.964 57.9156C41.9167 57.9137 40.8931 57.6034 40.021 57.0234L41.002 55.5413C41.4471 55.8381 41.9535 56.0306 42.4834 56.1045C43.0133 56.1783 43.553 56.1316 44.0623 55.9678L44.2152 55.9216L44.7519 57.617L44.6026 57.6632C44.0728 57.8317 43.52 57.9168 42.964 57.9156Z" fill="white"/>
</g>
<defs>
<filter id="filter0_i_1999_20131" x="0.924149" y="0.437256" width="94" height="102" filterUnits="userSpaceOnUse" color-interpolation-filters="sRGB">
<feFlood flood-opacity="0" result="BackgroundImageFix"/>
<feBlend mode="normal" in="SourceGraphic" in2="BackgroundImageFix" result="shape"/>
<feColorMatrix in="SourceAlpha" type="matrix" values="0 0 0 0 0 0 0 0 0 0 0 0 0 0 0 0 0 0 127 0" result="hardAlpha"/>
<feOffset dy="8"/>
<feGaussianBlur stdDeviation="8"/>
<feComposite in2="hardAlpha" operator="arithmetic" k2="-1" k3="1"/>
<feColorMatrix type="matrix" values="0 0 0 0 0 0 0 0 0 0 0 0 0 0 0 0 0 0 0.4 0"/>
<feBlend mode="normal" in2="shape" result="effect1_innerShadow_1999_20131"/>
</filter>
<clipPath id="clip0_1999_20131">
<rect width="35" height="26.146" fill="white" transform="translate(30.4241 34.3643)"/>
</clipPath>
</defs>
</svg>
