<svg width="95" height="95" viewBox="0 0 95 95" fill="none" xmlns="http://www.w3.org/2000/svg">
<g filter="url(#filter0_i_1999_20140)">
<circle cx="47.9241" cy="47.4373" r="37" fill="#76B926"/>
</g>
<circle cx="47.9241" cy="47.4373" r="42" stroke="white" stroke-width="10"/>
<g clip-path="url(#clip0_1999_20140)">
<path d="M60.2989 52.567L58.1944 49.6012L56.7205 50.639L56.9476 50.9597C55.8753 50.821 54.7857 50.9936 53.8088 51.457V47.2697H56.3313V41.9832H52.007C51.9356 41.9822 51.8674 41.9535 51.8169 41.903C51.7665 41.8525 51.7377 41.7843 51.7368 41.7129V39.9724C51.7387 39.7779 51.7021 39.585 51.6291 39.4047C51.5561 39.2245 51.4481 39.0605 51.3115 38.9221C51.1748 38.7838 51.0121 38.6738 50.8327 38.5987C50.6534 38.5235 50.4609 38.4845 50.2665 38.4841H45.5097C45.1195 38.485 44.7455 38.6407 44.4699 38.917C44.1942 39.1933 44.0395 39.5677 44.0395 39.9579V41.7273C44.0385 41.7987 44.0097 41.8669 43.9593 41.9174C43.9088 41.9679 43.8406 41.9966 43.7692 41.9976H39.607V47.2697H41.6467V51.3237C40.968 51.0528 40.244 50.9134 39.5133 50.9129C39.2819 50.9139 39.0508 50.9295 38.8214 50.9597L39.0449 50.639L37.5746 49.6012L35.4917 52.5381C34.8494 53.1588 34.3592 53.9196 34.0595 54.7611C33.7599 55.6026 33.6588 56.502 33.7642 57.389C33.8696 58.276 34.1787 59.1266 34.6673 59.8744C35.1558 60.6222 35.8106 61.2469 36.5806 61.6998C37.3505 62.1527 38.2147 62.4214 39.1057 62.485C39.9967 62.5486 40.8903 62.4053 41.7168 62.0664C42.5433 61.7275 43.2802 61.2022 43.87 60.5313C44.4598 59.8605 44.8866 59.0624 45.1169 58.1994H50.6485C50.8761 59.0637 51.3005 59.8636 51.8884 60.5368C52.4763 61.21 53.2119 61.7381 54.0378 62.0799C54.8636 62.4218 55.7572 62.5681 56.6489 62.5074C57.5406 62.4468 58.4062 62.1808 59.1782 61.7303C59.9501 61.2798 60.6074 60.6569 61.0987 59.9103C61.5901 59.1637 61.9022 58.3137 62.0108 57.4265C62.1193 56.5394 62.0212 55.6392 61.7243 54.7962C61.4273 53.9532 60.9395 53.1902 60.2989 52.567ZM47.8809 50.1994C48.0394 50.1987 48.1946 50.2451 48.3267 50.3327C48.4588 50.4203 48.5619 50.5452 48.6229 50.6916C48.6839 50.8379 48.7 50.999 48.6693 51.1546C48.6385 51.3101 48.5623 51.453 48.4502 51.5651C48.3381 51.6772 48.1952 51.7534 48.0397 51.7842C47.8842 51.8149 47.723 51.7988 47.5767 51.7378C47.4304 51.6768 47.3055 51.5737 47.2178 51.4416C47.1302 51.3095 47.0838 51.1543 47.0845 50.9958C47.0845 50.7846 47.1684 50.582 47.3178 50.4326C47.4671 50.2833 47.6697 50.1994 47.8809 50.1994ZM39.5133 60.7147C38.7222 60.7147 37.9488 60.4801 37.291 60.0406C36.6332 59.6011 36.1206 58.9763 35.8178 58.2454C35.5151 57.5145 35.4358 56.7103 35.5902 55.9343C35.7445 55.1584 36.1255 54.4457 36.6849 53.8863C37.2443 53.3269 37.957 52.9459 38.733 52.7916C39.5089 52.6372 40.3132 52.7164 41.0441 53.0192C41.775 53.3219 42.3997 53.8346 42.8392 54.4924C43.2787 55.1502 43.5133 55.9236 43.5133 56.7147C43.5133 57.7756 43.0919 58.793 42.3418 59.5431C41.5916 60.2933 40.5742 60.7147 39.5133 60.7147ZM43.4485 52.4624V47.2697H45.4304V50.1525C45.2882 50.5611 45.2503 50.9987 45.32 51.4257C45.3898 51.8526 45.565 52.2554 45.8299 52.5975C46.0948 52.9395 46.4409 53.21 46.8368 53.3844C47.2327 53.5589 47.6659 53.6316 48.097 53.5962C48.5282 53.5608 48.9437 53.4182 49.3058 53.1815C49.6679 52.9448 49.9652 52.6214 50.1707 52.2407C50.3762 51.86 50.4833 51.434 50.4824 51.0014C50.4815 50.5688 50.3726 50.1432 50.1656 49.7633V47.2697H52.007V52.7724C51.0832 53.7622 50.5372 55.0456 50.4647 56.3976H45.3007C45.2177 54.8951 44.5534 53.4839 43.4485 52.4624ZM56.2485 60.7147C55.4573 60.7147 54.684 60.4801 54.0262 60.0406C53.3684 59.6011 52.8557 58.9763 52.5529 58.2454C52.2502 57.5145 52.171 56.7103 52.3253 55.9343C52.4797 55.1584 52.8606 54.4457 53.42 53.8863C53.9794 53.3269 54.6922 52.9459 55.4681 52.7916C56.244 52.6372 57.0483 52.7164 57.7792 53.0192C58.5101 53.3219 59.1348 53.8346 59.5743 54.4924C60.0139 55.1502 60.2485 55.9236 60.2485 56.7147C60.2485 57.7756 59.827 58.793 59.0769 59.5431C58.3267 60.2933 57.3093 60.7147 56.2485 60.7147Z" fill="white"/>
<path d="M47.4196 34.4733C47.4447 34.3835 47.4984 34.3043 47.5725 34.2477C47.6466 34.1911 47.7372 34.1602 47.8304 34.1598H48.043C48.1383 34.1572 48.2316 34.1868 48.3081 34.2436C48.3845 34.3005 48.4397 34.3813 48.4647 34.4733L48.5476 36.9958L50.3494 36.9381L50.2665 34.3363V34.2138C50.178 33.6902 49.9053 33.2154 49.4976 32.8751C49.0899 32.5348 48.5741 32.3514 48.043 32.358H47.8304C47.304 32.3568 46.7942 32.5428 46.3922 32.8828C45.9902 33.2227 45.7222 33.6945 45.6358 34.2138L45.5385 36.9453L47.3403 37.003L47.4196 34.4733Z" fill="white"/>
<path d="M27.9241 58.8336H32.4286V57.0318V55.23V53.4282H27.9241V58.8336Z" fill="white"/>
<path d="M63.4196 53.4282V54.3291V57.9327V58.8336H67.9241V53.4282H63.4196Z" fill="white"/>
<path d="M36.7169 47.2697H37.798V41.9832H36.7169C36.0328 42.0085 35.3851 42.298 34.91 42.791C34.4349 43.2839 34.1695 43.9418 34.1695 44.6265C34.1695 45.3111 34.4349 45.969 34.91 46.462C35.3851 46.9549 36.0328 47.2444 36.7169 47.2697Z" fill="white"/>
<path d="M61.6899 44.6103C61.689 43.91 61.4104 43.2387 60.9152 42.7435C60.42 42.2484 59.7487 41.9698 59.0485 41.9688H58.1259V47.2697H59.0485C59.3967 47.2692 59.7415 47.2 60.0629 47.066C60.3844 46.9319 60.6762 46.7357 60.9216 46.4886C61.167 46.2415 61.3612 45.9484 61.4931 45.6261C61.6249 45.3037 61.6918 44.9585 61.6899 44.6103Z" fill="white"/>
</g>
<defs>
<filter id="filter0_i_1999_20140" x="0.924133" y="0.437256" width="94" height="102" filterUnits="userSpaceOnUse" color-interpolation-filters="sRGB">
<feFlood flood-opacity="0" result="BackgroundImageFix"/>
<feBlend mode="normal" in="SourceGraphic" in2="BackgroundImageFix" result="shape"/>
<feColorMatrix in="SourceAlpha" type="matrix" values="0 0 0 0 0 0 0 0 0 0 0 0 0 0 0 0 0 0 127 0" result="hardAlpha"/>
<feOffset dy="8"/>
<feGaussianBlur stdDeviation="8"/>
<feComposite in2="hardAlpha" operator="arithmetic" k2="-1" k3="1"/>
<feColorMatrix type="matrix" values="0 0 0 0 0 0 0 0 0 0 0 0 0 0 0 0 0 0 0.4 0"/>
<feBlend mode="normal" in2="shape" result="effect1_innerShadow_1999_20140"/>
</filter>
<clipPath id="clip0_1999_20140">
<rect width="40" height="30.1586" fill="white" transform="translate(27.9241 32.358)"/>
</clipPath>
</defs>
</svg>
