<svg width="95" height="95" viewBox="0 0 95 95" fill="none" xmlns="http://www.w3.org/2000/svg">
<g filter="url(#filter0_i_1999_20185)">
<circle cx="47.9241" cy="47.4373" r="37" fill="#76B926"/>
</g>
<circle cx="47.9241" cy="47.4373" r="42" stroke="white" stroke-width="10"/>
<g clip-path="url(#clip0_1999_20185)">
<path d="M55.4028 59.3845C54.0109 59.3852 52.65 58.9732 51.4924 58.2004C50.3347 57.4277 49.4322 56.3289 48.899 55.0432C48.3659 53.7575 48.226 52.3425 48.4971 50.9773C48.7682 49.6121 49.4381 48.3579 50.422 47.3734C51.406 46.389 52.6598 45.7184 54.0249 45.4466C55.39 45.1748 56.805 45.3139 58.091 45.8464C59.377 46.3789 60.4762 47.2808 61.2496 48.438C62.0229 49.5953 62.4357 50.9559 62.4357 52.3478C62.4338 54.2128 61.6923 56.0009 60.3739 57.32C59.0555 58.6391 57.2678 59.3815 55.4028 59.3845ZM55.4028 47.1873C54.3811 47.1866 53.3821 47.4889 52.5323 48.0561C51.6824 48.6232 51.0199 49.4297 50.6286 50.3735C50.2373 51.3173 50.1347 52.356 50.3338 53.3581C50.533 54.3602 51.0249 55.2808 51.7474 56.0032C52.4698 56.7257 53.3903 57.2176 54.3925 57.4167C55.3946 57.6159 56.4332 57.5133 57.377 57.122C58.3208 56.7306 59.1273 56.0681 59.6945 55.2183C60.2617 54.3685 60.564 53.3695 60.5633 52.3478C60.5613 50.9798 60.017 49.6683 59.0496 48.701C58.0823 47.7336 56.7708 47.1893 55.4028 47.1873Z" fill="white"/>
<path d="M42.2244 55.8081L40.9661 54.4112C41.4771 53.9464 41.7826 53.2976 41.8152 52.6076C41.8479 51.9176 41.6051 51.2429 41.1403 50.7319C40.6754 50.2208 40.0266 49.9154 39.3366 49.8828C38.6466 49.8501 37.9719 50.0929 37.4609 50.5577L36.2213 49.1684C37.1188 48.5071 38.2301 48.203 39.3393 48.3153C40.4484 48.4275 41.4763 48.948 42.2232 49.7756C42.97 50.6032 43.3826 51.679 43.3808 52.7938C43.3789 53.9086 42.9628 54.9829 42.2132 55.8081H42.2244Z" fill="white"/>
<path d="M58.1927 55.8081L56.9344 54.4112C57.4428 53.9459 57.7474 53.2992 57.7825 52.6109C57.8175 51.9226 57.5801 51.2483 57.1217 50.7337C56.8923 50.4801 56.6153 50.2742 56.3063 50.1277C55.9973 49.9812 55.6625 49.897 55.321 49.88C54.9794 49.8629 54.6379 49.9134 54.3159 50.0284C53.9939 50.1434 53.6976 50.3207 53.4442 50.5502L52.1934 49.1684C52.6245 48.7478 53.1362 48.4187 53.6976 48.2006C54.259 47.9825 54.8586 47.88 55.4606 47.8992C56.0626 47.9184 56.6545 48.0589 57.2009 48.3123C57.7473 48.5657 58.2369 48.9268 58.6404 49.3739C59.0439 49.821 59.353 50.345 59.5491 50.9145C59.7453 51.4839 59.8245 52.0871 59.782 52.6879C59.7395 53.2886 59.5762 53.8747 59.3018 54.4108C59.0275 54.947 58.6477 55.4222 58.1852 55.8081H58.1927Z" fill="white"/>
<path d="M39.5318 59.3845C38.1401 59.3845 36.7796 58.9718 35.6224 58.1986C34.4653 57.4254 33.5633 56.3264 33.0308 55.0406C32.4982 53.7548 32.3588 52.34 32.6303 50.975C32.9018 49.61 33.572 48.3562 34.5561 47.3721C35.5402 46.388 36.794 45.7178 38.159 45.4463C39.524 45.1748 40.9389 45.3141 42.2246 45.8467C43.5104 46.3793 44.6094 47.2812 45.3826 48.4384C46.1558 49.5956 46.5685 50.9561 46.5685 52.3478C46.5665 54.2134 45.8245 56.0021 44.5053 57.3213C43.1861 58.6405 41.3975 59.3825 39.5318 59.3845ZM39.5318 47.1873C38.5103 47.1873 37.5117 47.4903 36.6623 48.0579C35.813 48.6255 35.1511 49.4323 34.7603 50.3761C34.3696 51.32 34.2675 52.3586 34.4671 53.3604C34.6666 54.3623 35.1589 55.2825 35.8815 56.0045C36.6041 56.7266 37.5246 57.2182 38.5266 57.417C39.5286 57.6159 40.5671 57.513 41.5107 57.1216C42.4543 56.7302 43.2605 56.0677 43.8275 55.2179C44.3945 54.3682 44.6968 53.3693 44.6961 52.3478C44.6941 50.9791 44.1492 49.6671 43.1811 48.6996C42.2129 47.7322 40.9005 47.1883 39.5318 47.1873Z" fill="white"/>
<path d="M49.9876 49.7563C49.2454 49.3133 48.3972 49.0795 47.5328 49.0795C46.6685 49.0795 45.8202 49.3133 45.078 49.7563L44.1193 48.1498C45.1508 47.532 46.3305 47.2057 47.5328 47.2057C48.7351 47.2057 49.9149 47.532 50.9463 48.1498L49.9876 49.7563Z" fill="white"/>
<path d="M49.1338 53.0369C48.6503 52.7464 48.0969 52.5929 47.5328 52.5929C46.9688 52.5929 46.4154 52.7464 45.9319 53.0369L44.9694 51.4153C45.7443 50.9521 46.6301 50.7075 47.5328 50.7075C48.4356 50.7075 49.3214 50.9521 50.0962 51.4153L49.1338 53.0369Z" fill="white"/>
<path d="M32.0158 48.9549H30.1433V51.6587H32.0158V48.9549Z" fill="white"/>
<path d="M64.971 48.9549H63.0986V51.6587H64.971V48.9549Z" fill="white"/>
<path d="M31.2892 46.5731L29.971 45.2437L40.116 35.2073C40.2774 35.0474 40.4917 34.9518 40.7186 34.9387C40.9455 34.9256 41.1693 34.9958 41.3481 35.1362L44.3927 37.5067L43.2393 39.0047L40.8313 37.1172L31.2892 46.5731Z" fill="white"/>
<path d="M63.5442 46.5731L53.9872 37.1172L51.5904 38.9897L50.4408 37.5067L53.4854 35.1362C53.6645 34.9966 53.8881 34.9269 54.1148 34.94C54.3415 34.9531 54.5556 35.0481 54.7175 35.2073L64.8624 45.2437L63.5442 46.5731Z" fill="white"/>
</g>
<defs>
<filter id="filter0_i_1999_20185" x="0.924149" y="0.437256" width="94" height="102" filterUnits="userSpaceOnUse" color-interpolation-filters="sRGB">
<feFlood flood-opacity="0" result="BackgroundImageFix"/>
<feBlend mode="normal" in="SourceGraphic" in2="BackgroundImageFix" result="shape"/>
<feColorMatrix in="SourceAlpha" type="matrix" values="0 0 0 0 0 0 0 0 0 0 0 0 0 0 0 0 0 0 127 0" result="hardAlpha"/>
<feOffset dy="8"/>
<feGaussianBlur stdDeviation="8"/>
<feComposite in2="hardAlpha" operator="arithmetic" k2="-1" k3="1"/>
<feColorMatrix type="matrix" values="0 0 0 0 0 0 0 0 0 0 0 0 0 0 0 0 0 0 0.4 0"/>
<feBlend mode="normal" in2="shape" result="effect1_innerShadow_1999_20185"/>
</filter>
<clipPath id="clip0_1999_20185">
<rect width="35" height="24.4468" fill="white" transform="translate(29.971 34.9377)"/>
</clipPath>
</defs>
</svg>
