<svg width="95" height="95" viewBox="0 0 95 95" fill="none" xmlns="http://www.w3.org/2000/svg">
<g filter="url(#filter0_i_1999_19747)">
<circle cx="47.9242" cy="47.4373" r="37" fill="#76B926"/>
</g>
<circle cx="47.9242" cy="47.4373" r="42" stroke="white" stroke-width="10"/>
<g clip-path="url(#clip0_1999_19747)">
<path d="M59.2587 43.8169C59.8816 45.6089 61.5513 47.5079 63.4618 47.5079H64.9902V45.5975H63.4618C62.5486 45.5975 61.4673 44.3289 61.0699 43.1903C60.2148 40.7356 58.5465 38.6469 56.3414 37.2706C54.1364 35.8942 51.5271 35.3129 48.9464 35.6231C46.3656 35.9332 43.9684 37.1161 42.1522 38.9757C40.336 40.8352 39.21 43.2597 38.9608 45.8471C38.7117 48.4344 39.3544 51.0292 40.7824 53.2012C42.2103 55.3731 44.3378 56.9918 46.812 57.7887C49.2861 58.5855 51.9584 58.5128 54.3855 57.5825C56.8127 56.6522 58.8489 54.9203 60.1567 52.6739C60.8406 51.5008 61.7385 50.687 62.3423 50.687H64.9711V48.7765H62.3384C60.428 48.7765 59.018 50.8284 58.5175 51.711C57.4352 53.5788 55.7475 55.0209 53.7337 55.7984C51.7199 56.576 49.501 56.6424 47.4443 55.9867C48.8333 54.9237 49.9586 53.5551 50.7332 51.9869C51.5078 50.4188 51.9107 48.6933 51.9107 46.9443C51.9107 45.1954 51.5078 43.4699 50.7332 41.9017C49.9586 40.3336 48.8333 38.965 47.4443 37.902C48.076 37.697 48.7282 37.5612 49.3892 37.497C51.5043 37.2936 53.6265 37.8059 55.4159 38.9517C57.2053 40.0976 58.5585 41.8107 59.2587 43.8169ZM50.0006 46.9424C50.0032 48.5777 49.5822 50.1858 48.7787 51.6101C47.9752 53.0344 46.8164 54.2262 45.4154 55.0696C44.6515 54.6171 43.9545 54.0602 43.3444 53.4151C42.8359 52.8607 42.3935 52.2491 42.0262 51.5925C42.144 51.6199 42.2645 51.634 42.3854 51.6346C43.9138 51.6346 45.1021 49.5713 45.1021 46.9386C45.1021 44.306 43.9099 42.2427 42.3854 42.2427C42.2698 42.2438 42.1546 42.2566 42.0415 42.2809C42.8543 40.8597 44.0137 39.6675 45.4116 38.8153C46.8131 39.6585 47.9723 40.8502 48.7765 42.2744C49.5807 43.6986 50.0024 45.3068 50.0006 46.9424Z" fill="white"/>
<path d="M36.0388 46.6253H29.9711V48.5358H36.0388V46.6253Z" fill="white"/>
<path d="M33.1886 40.2824L32.0724 41.8329L35.9238 44.6055L37.04 43.055L33.1886 40.2824Z" fill="white"/>
<path d="M35.9251 50.5521L32.0732 53.324L33.1891 54.8747L37.041 52.1028L35.9251 50.5521Z" fill="white"/>
</g>
<defs>
<filter id="filter0_i_1999_19747" x="0.924194" y="0.437256" width="94" height="102" filterUnits="userSpaceOnUse" color-interpolation-filters="sRGB">
<feFlood flood-opacity="0" result="BackgroundImageFix"/>
<feBlend mode="normal" in="SourceGraphic" in2="BackgroundImageFix" result="shape"/>
<feColorMatrix in="SourceAlpha" type="matrix" values="0 0 0 0 0 0 0 0 0 0 0 0 0 0 0 0 0 0 127 0" result="hardAlpha"/>
<feOffset dy="8"/>
<feGaussianBlur stdDeviation="8"/>
<feComposite in2="hardAlpha" operator="arithmetic" k2="-1" k3="1"/>
<feColorMatrix type="matrix" values="0 0 0 0 0 0 0 0 0 0 0 0 0 0 0 0 0 0 0.4 0"/>
<feBlend mode="normal" in2="shape" result="effect1_innerShadow_1999_19747"/>
</filter>
<clipPath id="clip0_1999_19747">
<rect width="35" height="22.7959" fill="white" transform="translate(29.9711 35.5445)"/>
</clipPath>
</defs>
</svg>
