<svg width="95" height="95" viewBox="0 0 95 95" fill="none" xmlns="http://www.w3.org/2000/svg">
<g filter="url(#filter0_i_1999_20194)">
<circle cx="47.9241" cy="47.4373" r="37" fill="#76B926"/>
</g>
<circle cx="47.9241" cy="47.4373" r="42" stroke="white" stroke-width="10"/>
<g clip-path="url(#clip0_1999_20194)">
<path d="M57.6817 42.2404L55.7426 41.9573L56.0335 39.9872V39.9368C56.7238 36.4813 54.9321 32.956 51.8644 31.7227L52.5819 29.9232C56.4989 31.4745 58.787 35.9422 57.9377 40.2936L57.6817 42.2404Z" fill="white"/>
<path d="M53.6833 33.9139H51.7442C51.7442 30.7764 50.4993 29.3764 47.6333 29.3764C45.9269 29.3764 44.5927 30.152 43.2974 30.9277C41.9362 31.7343 40.5245 32.5681 38.9422 32.0911L39.5161 30.2373C40.2414 30.4623 41.0674 30.0163 42.3085 29.2678C43.6852 28.4495 45.3955 27.4373 47.6333 27.4373C51.5348 27.4373 53.6833 29.737 53.6833 33.9139Z" fill="white"/>
<path d="M37.8873 40.3323C37.4078 37.9954 37.8467 35.5635 39.1128 33.5416L40.7611 34.5615C39.7586 36.1619 39.4087 38.086 39.7837 39.9368L37.8873 40.3323Z" fill="white"/>
<path d="M47.8427 55.2325C45.8348 55.2294 43.9101 54.4304 42.4903 53.0107C41.0706 51.5909 40.2716 49.6662 40.2685 47.6583V47.5458C39.5697 47.3751 38.957 46.9559 38.5445 46.3666C38.132 45.7772 37.948 45.058 38.0268 44.343C38.1057 43.628 38.4419 42.9661 38.9728 42.4807C39.5037 41.9954 40.1931 41.7197 40.9123 41.7052C41.2371 41.1086 41.6759 40.5815 42.2037 40.154C43.755 38.8897 44.7362 38.9207 46.2371 38.9711C46.7064 38.9711 47.2416 39.0021 47.8931 38.9711C48.7467 38.9803 49.5873 38.7611 50.3278 38.3363C51.0683 37.9115 51.6818 37.2965 52.1048 36.555C52.1931 36.3693 52.3381 36.2164 52.519 36.1186C52.6998 36.0207 52.907 35.9828 53.1108 36.0105C53.3145 36.0381 53.5042 36.1298 53.6524 36.2723C53.8006 36.4148 53.8997 36.6007 53.9354 36.8032L54.7653 41.7091C55.4691 41.7446 56.1373 42.0297 56.6498 42.5134C57.1624 42.9971 57.4857 43.6476 57.5619 44.3482C57.638 45.0488 57.4619 45.7537 57.0652 46.3361C56.6686 46.9186 56.0773 47.3406 55.3975 47.5265V47.604C55.3994 47.6272 55.3994 47.6506 55.3975 47.6738C55.3903 49.6756 54.5922 51.5935 53.177 53.0093C51.7619 54.4252 49.8445 55.2243 47.8427 55.2325ZM40.9588 43.6444C40.6987 43.6604 40.4544 43.775 40.2759 43.9649C40.0974 44.1548 39.998 44.4056 39.998 44.6663C39.998 44.9269 40.0974 45.1777 40.2759 45.3676C40.4544 45.5575 40.6987 45.6721 40.9588 45.6882H41.2536C41.3821 45.6887 41.5092 45.7146 41.6276 45.7645C41.746 45.8144 41.8534 45.8872 41.9435 45.9788C42.0337 46.0703 42.1048 46.1789 42.1528 46.2981C42.2008 46.4172 42.2247 46.5448 42.2231 46.6732V47.6699C42.2231 49.1645 42.8168 50.5978 43.8736 51.6545C44.9304 52.7113 46.3637 53.305 47.8582 53.305C49.3527 53.305 50.786 52.7113 51.8428 51.6545C52.8996 50.5978 53.4932 49.1645 53.4932 47.6699L53.4273 46.7081C53.4205 46.5783 53.4399 46.4483 53.4844 46.3261C53.5289 46.2039 53.5975 46.0919 53.6861 45.9967C53.7748 45.9015 53.8817 45.8252 54.0004 45.7722C54.1192 45.7192 54.2474 45.6906 54.3775 45.6882H54.5947C54.8548 45.6721 55.099 45.5575 55.2776 45.3676C55.4561 45.1777 55.5555 44.9269 55.5555 44.6663C55.5555 44.4056 55.4561 44.1548 55.2776 43.9649C55.099 43.775 54.8548 43.6604 54.5947 43.6444H53.9625C53.7335 43.6441 53.5118 43.5631 53.3366 43.4155C53.1614 43.268 53.0438 43.0634 53.0046 42.8377L52.388 39.2542C51.1549 40.3244 49.58 40.9186 47.9474 40.9296C47.2338 40.949 46.6443 40.9296 46.1712 40.9296C44.8177 40.8869 44.4104 40.8753 43.4331 41.6742C42.9872 42.0302 42.6445 42.4988 42.4403 43.0316C42.3704 43.2159 42.2463 43.3746 42.0842 43.4868C41.9222 43.599 41.7299 43.6593 41.5328 43.6599L40.9588 43.6444Z" fill="white"/>
<path d="M45.0698 47.5265C44.5328 47.5265 44.008 47.3673 43.5615 47.069C43.1151 46.7706 42.7671 46.3467 42.5617 45.8506C42.3562 45.3545 42.3024 44.8087 42.4072 44.2821C42.5119 43.7555 42.7705 43.2718 43.1501 42.8921C43.5298 42.5124 44.0135 42.2539 44.5401 42.1491C45.0668 42.0444 45.6126 42.0981 46.1087 42.3036C46.6047 42.5091 47.0287 42.857 47.327 43.3035C47.6253 43.7499 47.7845 44.2748 47.7845 44.8117C47.7845 45.5317 47.4985 46.2222 46.9894 46.7313C46.4803 47.2405 45.7898 47.5265 45.0698 47.5265ZM45.0698 44.0361C44.9164 44.0361 44.7664 44.0816 44.6388 44.1668C44.5113 44.252 44.4119 44.3732 44.3532 44.5149C44.2945 44.6566 44.2791 44.8126 44.309 44.963C44.339 45.1135 44.4128 45.2517 44.5213 45.3602C44.6298 45.4687 44.768 45.5425 44.9184 45.5725C45.0689 45.6024 45.2249 45.587 45.3666 45.5283C45.5083 45.4696 45.6295 45.3702 45.7147 45.2426C45.7999 45.1151 45.8454 44.9651 45.8454 44.8117C45.8414 44.6087 45.7578 44.4154 45.6128 44.2733C45.4678 44.1311 45.2728 44.0515 45.0698 44.0516V44.0361Z" fill="white"/>
<path d="M50.4993 47.5265C49.9623 47.5265 49.4375 47.3673 48.991 47.069C48.5446 46.7706 48.1966 46.3467 47.9912 45.8506C47.7857 45.3545 47.7319 44.8087 47.8367 44.2821C47.9414 43.7555 48.2 43.2718 48.5796 42.8921C48.9593 42.5124 49.443 42.2539 49.9697 42.1491C50.4963 42.0444 51.0421 42.0981 51.5382 42.3036C52.0342 42.5091 52.4582 42.857 52.7565 43.3035C53.0548 43.7499 53.214 44.2748 53.214 44.8117C53.214 45.5317 52.928 46.2222 52.4189 46.7313C51.9098 47.2405 51.2193 47.5265 50.4993 47.5265ZM50.4993 44.0361C50.3459 44.0361 50.1959 44.0816 50.0683 44.1668C49.9408 44.252 49.8414 44.3732 49.7827 44.5149C49.724 44.6566 49.7086 44.8126 49.7385 44.963C49.7685 45.1135 49.8423 45.2517 49.9508 45.3602C50.0593 45.4687 50.1975 45.5425 50.348 45.5725C50.4984 45.6024 50.6544 45.587 50.7961 45.5283C50.9378 45.4696 51.059 45.3702 51.1442 45.2426C51.2294 45.1151 51.2749 44.9651 51.2749 44.8117C51.2709 44.6087 51.1873 44.4154 51.0423 44.2733C50.8973 44.1311 50.7023 44.0515 50.4993 44.0516V44.0361Z" fill="white"/>
<path d="M53.5017 41.6275L51.5033 43.8674L52.9502 45.1583L54.9487 42.9185L53.5017 41.6275Z" fill="white"/>
<path d="M42.1724 41.629L40.7255 42.92L42.7239 45.1598L44.1708 43.8688L42.1724 41.629Z" fill="white"/>
<path d="M60.7029 59.8437C59.1741 57.5386 56.9481 55.7829 54.3503 54.833C54.1954 54.7863 54.031 54.7799 53.8728 54.8145C53.7147 54.8492 53.568 54.9236 53.4467 55.0308C53.4196 55.0541 50.7126 57.4159 47.9086 57.4159H47.7845C44.9844 57.4159 42.3007 55.0541 42.2736 55.0347C42.1482 54.9224 41.9951 54.8456 41.8301 54.8122C41.6651 54.7788 41.4942 54.79 41.335 54.8447C38.7693 55.8845 36.5779 57.6758 35.0484 59.9833C33.4661 62.4925 33.4351 66.363 33.4351 66.553C33.4517 66.7921 33.5581 67.0161 33.7328 67.18C33.9076 67.344 34.1379 67.4359 34.3775 67.4373H40.4159L61.4669 67.4101C61.711 67.4094 61.9455 67.3147 62.1216 67.1457C62.2978 66.9768 62.4022 66.7465 62.4132 66.5026C62.4209 66.3048 62.2774 62.3413 60.7029 59.8437Z" fill="white"/>
</g>
<defs>
<filter id="filter0_i_1999_20194" x="0.924133" y="0.437256" width="94" height="102" filterUnits="userSpaceOnUse" color-interpolation-filters="sRGB">
<feFlood flood-opacity="0" result="BackgroundImageFix"/>
<feBlend mode="normal" in="SourceGraphic" in2="BackgroundImageFix" result="shape"/>
<feColorMatrix in="SourceAlpha" type="matrix" values="0 0 0 0 0 0 0 0 0 0 0 0 0 0 0 0 0 0 127 0" result="hardAlpha"/>
<feOffset dy="8"/>
<feGaussianBlur stdDeviation="8"/>
<feComposite in2="hardAlpha" operator="arithmetic" k2="-1" k3="1"/>
<feColorMatrix type="matrix" values="0 0 0 0 0 0 0 0 0 0 0 0 0 0 0 0 0 0 0.4 0"/>
<feBlend mode="normal" in2="shape" result="effect1_innerShadow_1999_20194"/>
</filter>
<clipPath id="clip0_1999_20194">
<rect width="28.9781" height="40" fill="white" transform="translate(33.4351 27.4373)"/>
</clipPath>
</defs>
</svg>
