<svg width="95" height="95" viewBox="0 0 95 95" fill="none" xmlns="http://www.w3.org/2000/svg">
<g filter="url(#filter0_i_1999_20176)">
<circle cx="47.9242" cy="47.4373" r="37" fill="#76B926"/>
</g>
<circle cx="47.9242" cy="47.4373" r="42" stroke="white" stroke-width="10"/>
<g clip-path="url(#clip0_1999_20176)">
<path d="M58.8322 57.2119C56.9156 54.1675 53.4142 53.0691 53.2667 53.0249C53.115 52.9785 52.9538 52.9721 52.7988 53.0063C52.6438 53.0406 52.5003 53.1142 52.3822 53.2202L47.9961 57.1529L43.352 53.2092C43.2301 53.1059 43.0833 53.0364 42.9262 53.0073C42.7692 52.9782 42.6072 52.9906 42.4564 53.0433C42.3016 53.0912 38.8554 54.3038 36.9388 57.3335C35.6377 59.3976 35.8331 63.5993 35.8331 64.0674C35.8427 64.3092 35.947 64.5375 36.1236 64.7031C36.3001 64.8686 36.5347 64.958 36.7766 64.952H52.6549L55.2349 64.9299H59.0866C59.3259 64.93 59.5559 64.837 59.7279 64.6705C59.8999 64.504 60.0003 64.2772 60.008 64.0379C60.0227 63.544 60.1296 59.2759 58.8322 57.2119ZM55.2939 60.8977H51.6081V59.0548H55.2939V60.8977Z" fill="white"/>
<path d="M58.5705 53.3124H56.7277V40.5117C56.7277 38.196 55.8077 35.975 54.1702 34.3376C52.5327 32.7001 50.3118 31.7801 47.9961 31.7801C45.6803 31.7801 43.4594 32.7001 41.8219 34.3376C40.1844 35.975 39.2645 38.196 39.2645 40.5117V53.3124H37.4216V40.5117C37.4216 37.7072 38.5357 35.0175 40.5188 33.0344C42.5019 31.0513 45.1916 29.9373 47.9961 29.9373C50.8006 29.9373 53.4903 31.0513 55.4733 33.0344C57.4564 35.0175 58.5705 37.7072 58.5705 40.5117V53.3124Z" fill="white"/>
<path d="M47.7049 52.2177C43.9049 52.2177 41.0374 49.1769 41.0374 45.1447C41.0391 45.0123 41.0689 44.8817 41.1248 44.7616C41.1807 44.6415 41.2614 44.5347 41.3617 44.4481C41.3875 44.4481 43.8864 42.2366 46.1532 40.1837C47.4838 38.9509 48.5802 37.4874 49.3893 35.864L51.0663 36.6232C50.1533 38.4787 48.9035 40.1484 47.3806 41.5474C45.593 43.206 43.6506 44.8904 42.895 45.5538C43.0682 48.3661 45.0475 50.3748 47.7049 50.3748C48.9842 50.3738 50.2108 49.8652 51.1154 48.9606C52.02 48.056 52.5286 46.8294 52.5296 45.5501V44.9088C52.4146 42.6946 51.7564 40.5427 50.613 38.643L52.1868 37.6773C53.5142 39.8646 54.2661 42.3525 54.3724 44.9088V45.5501C54.3705 47.3179 53.6674 49.0127 52.4174 50.2626C51.1674 51.5126 49.4726 52.2157 47.7049 52.2177Z" fill="white"/>
</g>
<defs>
<filter id="filter0_i_1999_20176" x="0.924194" y="0.437256" width="94" height="102" filterUnits="userSpaceOnUse" color-interpolation-filters="sRGB">
<feFlood flood-opacity="0" result="BackgroundImageFix"/>
<feBlend mode="normal" in="SourceGraphic" in2="BackgroundImageFix" result="shape"/>
<feColorMatrix in="SourceAlpha" type="matrix" values="0 0 0 0 0 0 0 0 0 0 0 0 0 0 0 0 0 0 127 0" result="hardAlpha"/>
<feOffset dy="8"/>
<feGaussianBlur stdDeviation="8"/>
<feComposite in2="hardAlpha" operator="arithmetic" k2="-1" k3="1"/>
<feColorMatrix type="matrix" values="0 0 0 0 0 0 0 0 0 0 0 0 0 0 0 0 0 0 0.4 0"/>
<feBlend mode="normal" in2="shape" result="effect1_innerShadow_1999_20176"/>
</filter>
<clipPath id="clip0_1999_20176">
<rect width="24.1823" height="35" fill="white" transform="translate(35.8331 29.9373)"/>
</clipPath>
</defs>
</svg>
