<svg width="60" height="61" viewBox="0 0 60 61" fill="none" xmlns="http://www.w3.org/2000/svg">
<circle cx="30" cy="30.4373" r="30" fill="#F4F4F4"/>
<g clip-path="url(#clip0_2205_702)">
<path d="M36.5958 31.294C36.2725 30.8857 36.365 30.704 36.5958 30.339C36.6 30.3348 39.2692 26.6465 39.5442 25.3957L39.5458 25.3948C39.6825 24.939 39.5458 24.604 38.885 24.604H36.6983C36.1417 24.604 35.885 24.8915 35.7475 25.2132C35.7475 25.2132 34.6342 27.8782 33.0592 29.6057C32.5508 30.1048 32.3158 30.2648 32.0383 30.2648C31.9017 30.2648 31.6892 30.1048 31.6892 29.649V25.3948C31.6892 24.8482 31.5333 24.604 31.0725 24.604H27.6342C27.285 24.604 27.0775 24.859 27.0775 25.0965C27.0775 25.6148 27.865 25.734 27.9467 27.1923V30.3565C27.9467 31.0498 27.8208 31.1773 27.5417 31.1773C26.7983 31.1773 24.9942 28.5015 23.925 25.439C23.7092 24.8448 23.4983 24.6048 22.9375 24.6048H20.75C20.1258 24.6048 20 24.8923 20 25.214C20 25.7823 20.7433 28.6082 23.4567 32.3415C25.265 34.8898 27.8117 36.2707 30.1283 36.2707C31.5208 36.2707 31.6908 35.964 31.6908 35.4365C31.6908 33.0015 31.565 32.7715 32.2625 32.7715C32.5858 32.7715 33.1425 32.9315 34.4425 34.1607C35.9283 35.6182 36.1725 36.2707 37.0042 36.2707H39.1908C39.8142 36.2707 40.13 35.964 39.9483 35.359C39.5325 34.0865 36.7225 31.469 36.5958 31.294Z" fill="#4B729F"/>
</g>
<defs>
<clipPath id="clip0_2205_702">
<rect width="20" height="20" fill="white" transform="translate(20 20.4373)"/>
</clipPath>
</defs>
</svg>
